<svg xmlns="http://www.w3.org/2000/svg" viewBox="0 0 204.5 321.5"><defs><style>.cls-1{fill:#754c29;}.cls-2{fill:#e9937c;}.cls-3{fill:#f2c09a;}.cls-4{fill:#143441;}.cls-5{fill:#e3646a;}.cls-6{fill:#00a79d;}.cls-7{fill:#8b5e3c;}.cls-8{fill:#a97c50;}</style></defs><title>Asset 4right-quiet</title><g id="Layer_2" data-name="Layer 2"><g id="Layer_1-2" data-name="Layer 1"><path class="cls-1" d="M160.7,31.6a54.1,54.1,0,0,1,.7-9.1c13,10.6,26.8,44,28.4,61.7.2,3.1,1.7,33,1.2,36C178.1,109.5,160.7,49,160.7,31.6Z"/><rect class="cls-2" x="27.1" y="217.3" width="127.7" height="96.81"/><path class="cls-2" d="M160.3,140.5a22.1,22.1,0,1,0,22.1-22.1A22.1,22.1,0,0,0,160.3,140.5Z"/><path class="cls-3" d="M20,210.1a85.5,85.5,0,0,0,85.5,85.6h0a85.6,85.6,0,0,0,85.6-85.6V114a85.6,85.6,0,0,0-85.6-85.6h0A85.5,85.5,0,0,0,20,114Z"/><path class="cls-4" d="M154.8,108.8a5.6,5.6,0,1,0,5.5-5.5A5.5,5.5,0,0,0,154.8,108.8Z"/><path class="cls-4" d="M67.4,108.8a5.5,5.5,0,0,0,5.5,5.5,5.5,5.5,0,0,0,5.5-5.5,5.5,5.5,0,0,0-5.5-5.5A5.4,5.4,0,0,0,67.4,108.8Z"/><path class="cls-2" d="M66,158.9l101.3,8.8c2.4.2,4.6-1.7,5.1-4.6s-1.3-6.1-3.9-6.3L67.2,147.9c-2.3-.2-4.6,1.7-5,4.6S63.5,158.6,66,158.9Z"/><path class="cls-5" d="M98.5,124.8a22.6,22.6,0,0,0,22.6,22.5h0a22.5,22.5,0,0,0,22.5-22.5V98.4a22.6,22.6,0,0,0-22.5-22.6h0A22.6,22.6,0,0,0,98.5,98.4Z"/><path class="cls-3" d="M0,140.5a22.1,22.1,0,1,0,22.1-22.1A22.1,22.1,0,0,0,0,140.5Z"/><path class="cls-2" d="M115.5,250.2a5.6,5.6,0,0,0,5.6,5.5h0a5.5,5.5,0,0,0,5.5-5.5h0a5.5,5.5,0,0,0-5.5-5.5h0a5.5,5.5,0,0,0-5.6,5.5Z"/><rect class="cls-6" x="20" y="304.1" width="145.9" height="17.36"/><path class="cls-1" d="M43,15.5c8.6,10,30.9,8.6,30.9,21.8,0,21.2-33.8,70.1-53.9,81.2-8.7-10-9.1-35.3-9.1-48.5C10.9,48.8,22.8,26.6,43,15.5Z"/><path class="cls-7" d="M35.8,20C53,7.6,76.7,0,102.9,0c45.1,0,86.3,21.1,95.8,51.4-16.9,7-39.9,15.6-61,15.6C93.6,67,55,46.2,35.8,20Z"/><path class="cls-8" d="M162.8,42.9c4.2-1.9,5.4-5.8,2.8-8.8C143.1,8.8,96.1,1.2,60.8,17.3c-4.2,1.8-5.4,5.8-2.8,8.7s8.1,3.9,12.3,2c27.1-12.3,63.1-6.5,80.3,12.9C153.2,43.9,158.7,44.8,162.8,42.9Z"/></g></g></svg>